# xmcd CD database file
# Copyright (C) 1993-1998 Ti Kan
#
# Track frame offsets:
# 150
# 15148
# 26916
# 44144
# 59026
# 74353
# 83693
# 105009
# 116108
# 130061
# 149956
# 168219
# 179624
# 196112
#
# Disc length: 2877 seconds
# Revision: 0
# Processed by: cddbd v1.4b41PL1 Copyright (c) Steve Scherf et al.
# Submitted via: CDSpectrumPro v3.2.328
#
DISCID=c60b3b0e
DTITLE=Elliott and the Untouchables - Danger Zone
DYEAR=1900
DGENRE=
TTITLE0=Sweet Little Woman
TTITLE1=Ain't No Big Thing
TTITLE2=More Than That
TTITLE3=Empty Heart
TTITLE4=Where Were You
TTITLE5=Check Out Time
TTITLE6=Crazy 'Bout You
TTITLE7=Why Baby Why
TTITLE8=J.T.'s Groove
TTITLE9=Danger Zone
TTITLE10=You're Gonna Miss Me
TTITLE11=Nazmania
TTITLE12=Limo Driver
TTITLE13=Maurice's Mood
EXTD=
EXTT0=
EXTT1=
EXTT2=
EXTT3=
EXTT4=
EXTT5=
EXTT6=
EXTT7=
EXTT8=
EXTT9=
EXTT10=
EXTT11=
EXTT12=
EXTT13=
PLAYORDER=
